# xmcd CD database file
#
# Track frame offsets:
#	150
#	9538
#	31319
#	51910
#	93067
#	117521
#	137738
#	155068
#	169524
#	200664
#
# Disc length: 2873 seconds
#
# Revision: 0
# Processed by: cddbd v1.5.2PL0 Copyright (c) Steve Scherf et al.
# Submitted via: CDex 1.70beta3
#
DISCID=810b370a
DTITLE=Ivo Perelman - Counterpoint
DYEAR=2015
DGENRE=Jazz
TTITLE0=Part 1
TTITLE1=Part 2
TTITLE2=Part 3
TTITLE3=Part 4
TTITLE4=Part 5
TTITLE5=Part 6
TTITLE6=Part 7
TTITLE7=Part 8
TTITLE8=Part 9
TTITLE9=Part 10
EXTD=YEAR: 2015
EXTT0=
EXTT1=
EXTT2=
EXTT3=
EXTT4=
EXTT5=
EXTT6=
EXTT7=
EXTT8=
EXTT9=
PLAYORDER=
